<?xml version="1.0" encoding="utf-8"?>
<!-- Uploaded to: SVG Repo, www.svgrepo.com, Generator: SVG Repo Mixer Tools -->
<svg width="800px" height="800px" viewBox="0 0 1024 1024" class="icon"  version="1.1" xmlns="http://www.w3.org/2000/svg"><path d="M972.011 899.734H55.013c-25.786 0-46.682 23.455-46.682 52.39v3.743c0 28.935 20.896 52.389 46.682 52.389h916.998c25.787 0 46.684-23.454 46.684-52.389v-3.743c-0.001-28.935-20.897-52.39-46.684-52.39z" fill="#C45FA0" /><path d="M66.007 15.343h-3.744c-28.934 0-52.389 20.589-52.389 45.994V964.75c0 25.404 23.455 45.993 52.389 45.993h3.744c28.934 0 52.389-20.589 52.389-45.993V61.336c0-25.404-23.455-45.993-52.389-45.993z" fill="#4A5699" /><path d="M309.615 402.957h-3.743c-28.935 0-52.389 21.033-52.389 46.966v470.815c0 25.941 23.454 46.971 52.389 46.971h3.743c28.936 0 52.39-21.028 52.39-46.971V449.923c-0.001-25.933-23.455-46.966-52.39-46.966z" fill="#F0D043" /><path d="M571.563 298.496h-3.744c-28.935 0-52.389 21.028-52.389 46.97v575.273c0 25.941 23.454 46.971 52.389 46.971h3.744c28.934 0 52.389-21.028 52.389-46.971V345.465c-0.001-25.942-23.456-46.969-52.389-46.969z" fill="#F39A2B" /><path d="M833.508 118.95h-3.738c-28.938 0-52.393 21.028-52.393 46.97v754.818c0 25.941 23.453 46.971 52.393 46.971h3.738c28.939 0 52.39-21.028 52.39-46.971V165.92c-0.001-25.941-23.45-46.97-52.39-46.97z" fill="#E5594F" /></svg>