<!DOCTYPE svg PUBLIC "-//W3C//DTD SVG 1.1//EN" "http://www.w3.org/Graphics/SVG/1.1/DTD/svg11.dtd">
<!-- Uploaded to: SVG Repo, www.svgrepo.com, Transformed by: SVG Repo Mixer Tools -->
<svg height="800px" width="800px" version="1.1" id="Layer_1" xmlns="http://www.w3.org/2000/svg" xmlns:xlink="http://www.w3.org/1999/xlink" viewBox="0 0 512 512" xml:space="preserve" fill="#000000">
<g id="SVGRepo_bgCarrier" stroke-width="0"/>
<g id="SVGRepo_tracerCarrier" stroke-linecap="round" stroke-linejoin="round"/>
<g id="SVGRepo_iconCarrier"> <g> <path style="fill:#00FF00;" d="M300.138,344.276c0,82.882-67.187,150.069-150.069,150.069S0,427.158,0,344.276 s67.187-150.069,150.069-150.069S300.138,261.394,300.138,344.276"/> <path style="fill:#FF0000;" d="M406.069,167.724c0,82.882-67.187,150.069-150.069,150.069s-150.069-67.187-150.069-150.069 S173.118,17.655,256,17.655S406.069,84.842,406.069,167.724"/> <path style="fill:#0000FF;" d="M512,344.276c0,82.882-67.187,150.069-150.069,150.069s-150.069-67.187-150.069-150.069 s67.187-150.069,150.069-150.069S512,261.394,512,344.276"/> </g> </g>
</svg>